HIERARCHY
ROOT SpineBase
{
  OFFSET 0.000000 0.000000 0.000000
  CHANNELS 6 Xposition Yposition Zposition Zrotation Xrotation Yrotation
  JOINT SpineMid
  {
    OFFSET 0.000000 31.663296 0.000000
    CHANNELS 3 Zrotation Xrotation Yrotation
    JOINT SpineShoulder
    {
      OFFSET 0.221214 23.253696 -0.672937
      CHANNELS 3 Zrotation Xrotation Yrotation
      JOINT Neck
      {
        OFFSET 0.178030 7.734337 -0.526714
        CHANNELS 3 Zrotation Xrotation Yrotation
        JOINT Head
        {
          OFFSET 2.957953 13.154986 3.111033
          CHANNELS 3 Zrotation Xrotation Yrotation
          End Site
          {
            OFFSET 0 0 0
          }
        }
      }
      JOINT ShoulderLeft
      {
        OFFSET -5.701966 -1.760458 -15.857608
        CHANNELS 3 Zrotation Xrotation Yrotation
        JOINT ElbowLeft
        {
          OFFSET -5.553682 -19.322138 -9.476279
          CHANNELS 3 Zrotation Xrotation Yrotation
          JOINT WristLeft
          {
            OFFSET 18.400962 -15.143411 3.072151
            CHANNELS 3 Zrotation Xrotation Yrotation
            JOINT HandLeft
            {
              OFFSET 6.681719 -4.208645 3.551526
              CHANNELS 3 Zrotation Xrotation Yrotation
              JOINT HandTipLeft
              {
                OFFSET 6.233911 -2.594066 1.173680
                CHANNELS 3 Zrotation Xrotation Yrotation
                End Site
                {
                  OFFSET 0 0 0
                }
              }
              JOINT ThumbLeft
              {
                OFFSET 4.731838 -1.061022 -2.285377
                CHANNELS 3 Zrotation Xrotation Yrotation
                End Site
                {
                  OFFSET 0 0 0
                }
              }
            }
          }
        }
      }
      JOINT ShoulderRight
      {
        OFFSET 6.339477 -3.130353 16.424195
        CHANNELS 3 Zrotation Xrotation Yrotation
        JOINT ElbowRight
        {
          OFFSET 1.836948 -25.992451 3.851291
          CHANNELS 3 Zrotation Xrotation Yrotation
          JOINT WristRight
          {
            OFFSET 7.193741 -21.725484 -11.720975
            CHANNELS 3 Zrotation Xrotation Yrotation
            JOINT HandRight
            {
              OFFSET -0.591472 -3.581704 -3.540177
              CHANNELS 3 Zrotation Xrotation Yrotation
              JOINT HandTipRight
              {
                OFFSET 0.840889 -5.557816 -1.870235
                CHANNELS 3 Zrotation Xrotation Yrotation
                End Site
                {
                  OFFSET 0 0 0
                }
              }
              JOINT ThumbRight
              {
                OFFSET -1.013047 0.041615 -3.874790
                CHANNELS 3 Zrotation Xrotation Yrotation
                End Site
                {
                  OFFSET 0 0 0
                }
              }
            }
          }
        }
      }
    }
  }
  JOINT HipLeft
  {
    OFFSET -1.141779 1.544978 -9.080223
    CHANNELS 3 Zrotation Xrotation Yrotation
    JOINT KneeLeft
    {
      OFFSET -4.578116 -32.455188 -10.062930
      CHANNELS 3 Zrotation Xrotation Yrotation
      JOINT AnkleLeft
      {
        OFFSET -11.507752 -38.748432 3.384520
        CHANNELS 3 Zrotation Xrotation Yrotation
        JOINT FootLeft
        {
          OFFSET 10.128531 -3.104939 -6.053313
          CHANNELS 3 Zrotation Xrotation Yrotation
          End Site
          {
            OFFSET 0 0 0
          }
        }
      }
    }
  }
  JOINT HipRight
  {
    OFFSET 3.946840 -0.051695 2.753633
    CHANNELS 3 Zrotation Xrotation Yrotation
    JOINT KneeRight
    {
      OFFSET -2.314349 -34.217790 2.931398
      CHANNELS 3 Zrotation Xrotation Yrotation
      JOINT AnkleRight
      {
        OFFSET -11.198692 -32.886359 3.071479
        CHANNELS 3 Zrotation Xrotation Yrotation
        JOINT FootRight
        {
          OFFSET 2.608539 -7.026208 -0.917842
          CHANNELS 3 Zrotation Xrotation Yrotation
          End Site
          {
            OFFSET 0 0 0
          }
        }
      }
    }
  }
}
MOTION
Frames: 10
Frame Time: 0.033333
-140.318625 75.988445 312.312839 -0.000000 0.000000 -66.732044 -0.000000 0.000000 66.732044 -0.000000 0.000000 0.000000 -0.000000 0.000000 0.000000 0.000000 0.000000 0.000000 -0.000000 0.000000 0.000000 -0.000000 0.000000 0.000000 -0.000000 0.000000 0.000000 -0.000000 0.000000 0.000000 0.000000 0.000000 0.000000 0.000000 0.000000 0.000000 -0.000000 0.000000 0.000000 -0.000000 0.000000 0.000000 -0.000000 0.000000 0.000000 -0.000000 0.000000 0.000000 0.000000 0.000000 0.000000 0.000000 0.000000 0.000000 -0.000000 0.000000 66.732044 -0.000000 0.000000 0.000000 -0.000000 0.000000 0.000000 0.000000 0.000000 0.000000 -0.000000 0.000000 66.732044 -0.000000 0.000000 0.000000 -0.000000 0.000000 0.000000 0.000000 0.000000 0.000000
-140.451894 75.606857 311.269241 0.545463 0.139040 -68.129868 -0.074160 -0.557998 68.128845 -0.000000 0.000000 0.000000 -0.282162 2.661316 -0.522072 0.000000 0.000000 0.000000 2.450509 -0.159358 -1.160677 -7.513807 0.454054 0.683160 -3.550002 -1.319820 -9.309805 -3.314207 2.113713 8.856604 0.000000 0.000000 0.000000 0.000000 0.000000 0.000000 1.173787 1.225364 0.248189 -0.441303 0.764990 -0.008041 -0.453686 1.831085 -1.140279 1.736354 5.051675 1.459604 0.000000 0.000000 0.000000 0.000000 0.000000 0.000000 1.222466 -0.460194 68.127052 -0.573995 1.166725 0.019159 0.131609 -0.173753 -0.822515 0.000000 0.000000 0.000000 1.668804 -0.984319 68.293983 -0.248950 1.776838 -0.137817 -0.000000 0.000000 0.000000 0.000000 0.000000 0.000000
-140.610555 75.278876 310.209436 1.004426 0.173980 -69.469041 0.153062 -0.230048 69.494405 -0.842649 0.050406 -0.024493 -0.443955 4.962269 -0.981321 0.000000 0.000000 0.000000 5.007151 -0.679090 -2.267160 -14.911337 0.885445 1.305029 -5.597628 -1.422460 -16.675951 -4.731499 2.221634 15.942676 0.000000 0.000000 0.000000 0.000000 0.000000 0.000000 2.224398 2.225789 0.444401 -0.934414 1.524469 0.017343 -0.736697 2.574949 -2.047448 2.750432 9.442113 2.510679 0.000000 0.000000 0.000000 0.000000 0.000000 0.000000 2.375836 -0.858980 69.519319 -0.266955 3.158867 -0.200646 -0.519182 -1.159752 -1.444727 0.000000 0.000000 0.000000 3.135014 -1.697927 69.814546 -0.496327 3.359172 -0.255799 -0.041757 -1.537597 -0.567052 0.000000 0.000000 0.000000
-140.794607 75.004502 309.133423 1.379797 0.106721 -70.747281 0.201674 -0.306156 70.785085 -0.143523 -0.084815 0.040982 -1.495510 7.160926 -1.455417 0.000000 0.000000 0.000000 6.590488 -1.297497 -3.376768 -22.005452 1.298194 1.877369 -6.132251 -0.987432 -21.876275 -5.072154 1.686214 20.900059 0.000000 0.000000 0.000000 0.000000 0.000000 0.000000 2.139444 3.258916 0.509259 -1.515718 2.196544 0.075770 -0.808776 2.910193 -2.824069 3.225902 12.866230 3.335889 0.000000 0.000000 0.000000 0.000000 0.000000 0.000000 3.450307 -1.210441 70.902684 -0.235221 4.554473 -0.314307 -0.793746 -1.540268 -2.184318 0.000000 0.000000 0.000000 4.370895 -2.163965 71.271574 -0.742176 4.737003 -0.354558 0.033173 -2.394258 -0.894987 0.000000 0.000000 0.000000
-141.004050 74.783733 308.041202 1.673936 -0.061510 -71.963312 0.229713 -0.358527 72.014243 -0.179961 -0.089991 0.051666 -1.637120 8.918567 -1.822640 0.000000 0.000000 0.000000 8.952842 -2.307698 -4.291736 -28.627388 1.694119 2.403808 -5.558859 -0.439613 -25.193361 -4.904610 1.125428 23.994399 0.000000 0.000000 0.000000 0.000000 0.000000 0.000000 2.726900 3.995366 0.590967 -2.212158 2.710548 0.166509 -0.631311 3.200285 -3.515805 3.284322 15.362392 4.048819 0.000000 0.000000 0.000000 0.000000 0.000000 0.000000 4.436990 -1.527236 72.272328 -0.087379 5.809654 -0.437335 -1.077619 -1.777517 -2.937705 0.000000 0.000000 0.000000 5.353577 -2.406588 72.648208 -1.001685 5.083534 -0.155214 0.167093 -2.483623 -1.528971 0.000000 0.000000 0.000000
-141.238884 74.616571 306.932773 1.888667 -0.330144 -73.116648 0.235829 -0.388648 73.181581 -0.211610 -0.084135 0.060877 -1.610064 10.349155 -2.138935 0.000000 0.000000 0.000000 11.288181 -3.554666 -5.044545 -34.633628 2.073186 2.874809 -4.295673 0.038990 -26.984912 -4.503144 0.763538 25.548975 0.000000 0.000000 0.000000 0.000000 0.000000 0.000000 3.244687 4.548642 0.637671 -3.036508 3.015975 0.287898 -0.176183 3.654897 -4.149862 2.994803 17.040204 4.719051 0.000000 0.000000 0.000000 0.000000 0.000000 0.000000 5.327764 -1.820365 73.624470 0.179097 6.910664 -0.569599 -1.369916 -1.863854 -3.706250 0.000000 0.000000 0.000000 6.065085 -2.449692 73.932775 -1.216870 5.529459 -0.046134 0.320212 -2.934828 -2.083857 0.000000 0.000000 0.000000
-141.527817 74.598758 305.663171 2.074548 -0.807657 -74.268834 0.164203 -0.397134 74.351682 -0.264792 -0.031677 0.068067 -1.129824 11.475613 -2.511444 0.000000 0.000000 0.000000 14.275967 -5.444890 -5.799748 -39.953212 2.872842 4.293784 -1.277161 -0.849369 -26.772655 -4.852570 1.049958 23.387063 0.000000 0.000000 0.000000 0.000000 0.000000 0.000000 3.793323 5.087645 0.665816 -4.391656 2.096256 0.285607 -0.035549 5.065459 -3.798664 4.677799 18.137509 4.137304 0.000000 0.000000 0.000000 0.000000 0.000000 0.000000 6.446161 -2.363170 75.164597 1.026615 8.276234 -0.842474 -1.980245 -1.759089 -4.626885 0.000000 0.000000 0.000000 6.354175 -2.361222 75.179420 -1.422531 5.589704 0.133925 0.702339 -3.633172 -2.863098 0.000000 0.000000 0.000000
-141.844951 74.576654 304.455274 2.136937 -1.463087 -75.227590 0.113014 -0.371015 75.331385 -0.284869 -0.001791 0.078006 -0.732985 12.619420 -2.809220 0.000000 0.000000 0.000000 16.593916 -7.133589 -6.208035 -45.046855 3.363595 4.760475 1.575578 -0.978686 -26.092592 -5.394167 1.159753 22.836869 0.000000 0.000000 0.000000 0.000000 0.000000 0.000000 4.178052 5.468926 0.637513 -5.653663 1.555452 0.417919 1.940716 5.502253 -4.958328 3.048843 19.889638 5.259945 0.000000 0.000000 0.000000 0.000000 0.000000 0.000000 6.968879 -2.627831 76.420251 1.629564 8.953194 -0.990614 -2.355658 -1.441953 -5.529023 0.000000 0.000000 0.000000 6.291773 -2.036225 76.188337 -1.626301 5.215479 0.401247 1.078014 -3.839310 -3.626108 0.000000 0.000000 0.000000
-142.193222 74.502511 303.435442 2.025694 -2.194105 -76.246435 0.041848 -0.297878 76.365081 -0.279644 0.032353 0.084802 -0.345187 13.038933 -2.900124 0.000000 0.000000 0.000000 18.100494 -8.350066 -6.333448 -48.111128 3.551570 4.357460 3.308269 -0.325935 -24.205135 -3.862262 1.394642 20.449517 0.000000 0.000000 0.000000 0.000000 0.000000 0.000000 4.369975 5.816651 0.578493 -6.155457 0.319544 0.123372 2.017284 9.265896 -4.708459 5.273975 18.717687 4.853003 0.000000 0.000000 0.000000 0.000000 0.000000 0.000000 6.974602 -2.603092 77.624829 1.899454 8.967156 -0.991874 -2.415393 -0.948778 -6.356885 0.000000 0.000000 0.000000 5.895947 -1.355887 77.195413 -1.793811 4.402529 0.723236 1.089981 -3.517011 -4.265348 0.000000 0.000000 0.000000
-142.457155 74.375085 302.272875 1.960084 -2.578015 -77.253243 0.053801 -0.302161 77.380028 -0.282718 0.026395 0.088388 -0.163461 13.059741 -2.863355 0.000000 0.000000 0.000000 19.020941 -9.368363 -6.247679 -49.250384 3.581081 3.405427 2.330834 0.929791 -23.450664 -0.920437 1.750290 19.624151 0.000000 0.000000 0.000000 0.000000 0.000000 0.000000 4.422659 5.134831 0.513551 -6.684712 1.504545 0.596467 2.703662 10.053552 -5.198820 2.309541 17.940319 6.159417 0.000000 0.000000 0.000000 0.000000 0.000000 0.000000 7.563679 -2.897097 78.950305 2.343567 9.401224 -1.158778 -2.456553 -0.561248 -7.067055 0.000000 0.000000 0.000000 5.952980 -0.903725 78.219604 -1.706240 3.742104 1.040623 0.535377 -2.695427 -4.691638 0.000000 0.000000 0.000000
